# xmcd
#
# Track frame offsets:
#	150
#	9631
#	28785
#	41889
#	56478
#	73782
#	87775
#	102321
#	116038
#	130582
#	142305
#	157004
#	175343
#	187126
#
# Disc length: 2666 seconds
#
# Revision: 1
# Processed by: cddbd v1.5.1PL0 Copyright (c) Steve Scherf et al.
# Submitted via: audiograbber 1.83.01
#
DISCID=cf0a680e
DTITLE=Various Artist - To nej s trampskou harmonikou
DYEAR=1900
DGENRE=Country
TTITLE0=Jipi Jou
TTITLE1=Houpy hou
TTITLE2=Jel cowboy
TTITLE3=Niagara
TTITLE4=Ohio
TTITLE5=Prijd na chvili
TTITLE6=Ja prijdu za tebou
TTITLE7=Male banjo
TTITLE8=Japonecka
TTITLE9=Muz se srdcem kovboje
TTITLE10=Vandrak
TTITLE11=To nase mladi
TTITLE12=Bedna od whisky
TTITLE13=Na osade hrali
EXTD=
EXTT0=
EXTT1=
EXTT2=
EXTT3=
EXTT4=
EXTT5=
EXTT6=
EXTT7=
EXTT8=
EXTT9=
EXTT10=
EXTT11=
EXTT12=
EXTT13=
PLAYORDER=
